<svg xmlns="http://www.w3.org/2000/svg" width="52" height="52" fill="none"><g clip-path="url(#a)"><rect width="52" height="52" fill="#007EC1" fill-opacity=".09" rx="10"/><path fill="#007EC1" d="M39.07 37.9h-.04c-.05-.01-.06-.22-.1-.47a22.33 22.33 0 0 0-1.76-5.36 24.46 24.46 0 0 0-3-4.26 59.56 59.56 0 0 0-6.23-5.75 42.92 42.92 0 0 1-5.55-5.43 15.35 15.35 0 0 1-3.09-5.1c-.9-2.55-1.32-4.87-1.14-6.38.05-.34.08-.5.12-.53.05-.04.14.07.3.44.55 1.37 1.3 2.65 2.2 3.8a31.58 31.58 0 0 0 6.25 5.76c2.18 1.59 5.38 4.04 6.34 4.85a38.2 38.2 0 0 1 6.53 7.1 29.6 29.6 0 0 1 1.16 1.8c0 .05-.17.14-.44.24-.81.3-1.56.76-2.19 1.35l-.07.07a8.58 8.58 0 0 1 2.63-1.18l.33-.1.35.65c.36.7.68 1.42.96 2.16l.19.5s-.11.04-.16.04c-.62.13-1.22.34-1.78.62-.32.15-.61.36-.86.62.14 0 .28-.03.42-.06a5.67 5.67 0 0 1 1.92-.02c.3.05.6.13.9.25.35.14.67.33.96.57-.16.09-.33.16-.5.2-.94.33-1.84.77-2.67 1.32a4.95 4.95 0 0 0-1.79 1.97c-.1.25-.16.34-.21.33"/><path fill="#007EC1" fill-rule="evenodd" d="M18.04 9.78c.2.8.45 1.58.74 2.34.75 1.72 1.7 3.33 2.85 4.81 0 0 1.52 1.85 2.77 3.04l.53.5c.65.6 1.53 1.39 1.9 1.68 0 0 3 2.52 5.52 5.18a26.47 26.47 0 0 1 3.25 4.16c.5.87.9 1.78 1.22 2.72a19.75 19.75 0 0 1 1.06 7.09l-.48 5.24h-.02l-.78-3c.22-1.08.33-2.18.34-3.28-.1-.14-.19-.29-.24-.45a9.04 9.04 0 0 0-2.96-3.74 7.69 7.69 0 0 0-1.64-.75 6.13 6.13 0 0 0-.72-.16l-.33-.05-.67-.11.06-.4c.07-.9-.2-1.8-.76-2.5l-.18-.22.2-.06a5.62 5.62 0 0 1 1.77-.12c.44.08.51.03.51.01l-.09-.02-.63-.15-.12-.02a5.96 5.96 0 0 0-1.61-.02l-.4.03-.37-.35c-.6-.56-1.25-1.08-1.91-1.57a3.86 3.86 0 0 1-.5-.41 13.1 13.1 0 0 1 5.06.28l.1.01a12.1 12.1 0 0 0-2.46-.67 14.75 14.75 0 0 0-3.1-.18l-.47.03-.86-.66a39.07 39.07 0 0 1-5.08-4.47 37.28 37.28 0 0 1-2.84-3.61c-.31-.47-.6-.95-.86-1.45l-.3-.65a12.66 12.66 0 0 1 2.27-14.1c0 .35-.03.71-.08 1.07-.09.59-.12 1.19-.1 1.78.05 1.08.19 2.15.41 3.2Z" clip-rule="evenodd"/><path fill="url(#b)" d="M36.67 45.72c-2.6.16-5.2.2-7.8.09a57.79 57.79 0 0 1-11.54-1.57c-1.79-.43-3.54-1-5.24-1.7-2.22-.98-3.49-2.02-3.78-3.08a1.73 1.73 0 0 1 .58-1.69c.8-.79 2.16-1.37 4.24-1.83 0 0 2.63-.5 4.58-.95a12.65 12.65 0 0 0 2.76-.9.48.48 0 0 0 .23-.3.3.3 0 0 0-.08-.25c-1.1-.61-3.44-1-5.7-1.34l-.37-.06c-2.39-.37-5.23-.6-6.9-.81l-2.26.1c.04 0 4.16-.29 7.6.01a53 53 0 0 1 5.11.7c1.23.17 2.41.6 3.47 1.24a.56.56 0 0 1 .2.48c-.02.22-.25.46-.66.67h-.04a32.7 32.7 0 0 1-6.27 1.93 16 16 0 0 0-2.29.65c-1.03.4-2.25 1.03-2.19 1.84.07.8 1.3 1.82 3.34 2.7a35.15 35.15 0 0 0 8.1 2.15c4.46.63 8.99.67 13.46.11l1.45 1.8Z"/></g><defs><linearGradient id="b" x1="7.88" x2="35.62" y1="32.15" y2="47.12" gradientUnits="userSpaceOnUse"><stop stop-color="#007EC1" stop-opacity=".05"/><stop offset=".99" stop-color="#007EC1"/></linearGradient><clipPath id="a"><path fill="#fff" d="M0 0h52v52H0z"/></clipPath></defs></svg>